<svg width="469" height="469" viewBox="0 0 469 469" fill="none" xmlns="http://www.w3.org/2000/svg">
<g clip-path="url(#clip0_1342_17)">
<path d="M285.112 105.834L264.529 133.488L233.563 110.441L261.377 300.165L227.746 305.095L199.933 115.371L176.885 146.337L149.231 125.754L207.211 47.8532L285.112 105.834ZM365.502 180.799L392.893 367.635C395.632 386.319 382.586 403.847 363.902 406.586L160.081 436.466C141.228 439.23 123.87 426.159 121.131 407.476L93.7404 220.639C90.9764 201.786 103.877 184.453 122.731 181.689L173.686 174.219L178.666 208.189L127.711 215.659L155.101 402.496L358.922 372.615L331.532 185.779L280.577 193.249L275.597 159.279L326.552 151.809C345.236 149.07 362.738 161.945 365.502 180.799Z" fill="white"/>
</g>
<defs>
<clipPath id="clip0_1342_17">
<rect width="412" height="412" fill="white" transform="translate(0.899414 60.748) rotate(-8.3402)"/>
</clipPath>
</defs>
</svg>
