<svg width="464" height="464" viewBox="0 0 464 464" fill="none" xmlns="http://www.w3.org/2000/svg">
<path d="M220.46 57.3471L201.192 72.1165L116.099 60.8702L111.6 94.9076L128.619 97.1568L94.8803 352.437C93.7057 361.325 95.7644 370.815 101.333 378.08C106.901 385.345 115.532 389.798 124.419 390.973L294.606 413.465C303.493 414.64 312.984 412.581 320.249 407.013C327.513 401.444 331.967 392.814 333.142 383.927L366.881 128.646L383.899 130.896L388.398 96.8583L303.304 85.612L288.535 66.3441L220.46 57.3471ZM162.656 101.655L332.843 124.148L299.104 379.428L128.918 356.935L162.656 101.655ZM192.195 140.191L167.453 327.397L201.491 331.895L226.233 144.69L192.195 140.191ZM260.27 149.188L235.528 336.394L269.566 340.892L294.307 153.687L260.27 149.188Z" fill="white"/>
</svg>
